<svg width="112" height="34" viewBox="0 0 112 34" fill="none" xmlns="http://www.w3.org/2000/svg">
<path d="M12.2967 33C12.2967 33 8.75473 33 1.67087 33C1.31019 33 1.0505 32.8702 0.891794 32.6105C0.733093 32.3363 0.697024 32.0117 0.783589 31.6366L7.81695 3.97926H6.04238C5.59513 3.97926 5.32101 3.91434 5.22002 3.78449C5.11903 3.64022 5.12624 3.3156 5.24166 2.81064L5.52299 1.79351C5.62399 1.40397 5.74662 1.1587 5.89089 1.05771C6.03517 0.956717 6.30929 0.90622 6.71326 0.90622H21.1695C21.5879 0.90622 21.8548 0.985572 21.9702 1.14427C22.1001 1.28855 22.1145 1.5771 22.0135 2.00992L21.6889 3.13526C21.5591 3.69793 21.1912 3.97926 20.5852 3.97926H11.431L8.85573 14.0857H16.6898C16.9495 14.0857 17.1371 14.1867 17.2525 14.3886C17.3679 14.5762 17.3895 14.8142 17.3174 15.1028L16.9928 16.2065C16.8485 16.8269 16.4085 17.1371 15.6727 17.1371H8.07665L4.80884 29.9486H13.3138C13.5735 29.9486 13.761 30.0496 13.8765 30.2516C13.9919 30.4391 14.0135 30.6772 13.9414 30.9657L13.6384 32.0694C13.4941 32.6898 13.0469 33 12.2967 33ZM25.9 1.88007C26.0731 1.24527 26.4987 0.920648 27.1768 0.90622H28.6051C29.2255 0.90622 29.579 1.24527 29.6656 1.92335C30.4735 10.4932 30.726 16.7403 30.423 20.6646L41.7629 1.75023C42.0804 1.18756 42.5204 0.90622 43.0831 0.90622H44.5547C44.8721 0.935077 45.1029 1.07935 45.2472 1.33904C45.4059 1.59874 45.4419 1.91614 45.3554 2.29125L37.781 32.0261C37.6079 32.6754 37.1606 33 36.4392 33H35.1624C34.8017 33 34.542 32.8702 34.3833 32.6105C34.2246 32.3363 34.1886 32.0117 34.2751 31.6366L39.3824 11.5969C38.3581 13.4004 36.9226 15.7592 35.0758 18.6736C33.2291 21.5735 32.0605 23.4202 31.57 24.2137C30.8198 25.4112 30.0767 25.9883 29.3409 25.945L28.4537 25.9017C27.6457 25.8584 27.2778 25.2669 27.35 24.1271C27.5519 20.9964 27.4654 16.7187 27.0903 11.294L21.8098 32.0261C21.6367 32.6754 21.1967 33 20.4897 33H19.1913C18.8306 33 18.5709 32.8702 18.4122 32.6105C18.2535 32.3363 18.2174 32.0117 18.304 31.6366L25.9 1.88007ZM51.7571 28.3472C53.7914 25.1443 54.859 21.6096 54.96 17.743C55.0033 16.0117 54.9095 14.8503 54.6787 14.2588C54.4623 13.6673 54.0222 13.3643 53.3586 13.3499C52.6949 13.321 52.089 13.6312 51.5407 14.2804C51.0069 14.9152 50.4875 15.7592 49.9826 16.8124C48.6408 19.5825 47.9194 22.6916 47.8184 26.1398C47.7607 28.8088 48.2224 30.1794 49.2035 30.2516C50.0691 30.2804 50.9203 29.6456 51.7571 28.3472ZM44.226 26.5726C44.3703 22.5906 45.1927 19.1641 46.6931 16.2931C47.3423 15.0234 47.8762 14.1073 48.2946 13.5446C48.7129 12.9675 49.2179 12.3977 49.8094 11.835C51.0358 10.6664 52.5146 10.0965 54.2459 10.1253C55.7319 10.1975 56.8861 10.9405 57.7084 12.3544C58.3144 13.321 58.5741 14.9369 58.4875 17.202C58.4154 19.4527 58.0331 21.6601 57.3405 23.8242C56.6624 25.9739 55.8978 27.7701 55.0466 29.2128C53.3441 32.055 51.1728 33.4328 48.5326 33.3463C47.566 33.303 46.6931 32.8918 45.914 32.1127C45.3946 31.6222 44.969 30.9008 44.6372 29.9486C44.3198 28.982 44.1827 27.8566 44.226 26.5726ZM65.2352 28.8233C67.9186 24.3652 70.191 18.4716 72.0521 11.1425C72.1964 10.5221 72.6148 10.2408 73.3073 10.2985L74.5408 10.4067C74.8871 10.45 75.1468 10.5726 75.3199 10.7746C75.5075 10.9766 75.558 11.2218 75.4714 11.5104C73.1197 19.4166 70.429 25.7358 67.3993 30.468C66.2739 32.1993 65.3145 33.0433 64.521 33L63.2874 32.9134C62.8979 32.8846 62.5805 32.6898 62.3352 32.3291C62.1044 31.9684 62.0106 31.4418 62.0539 30.7493C62.3857 25.3679 62.3352 19.1569 61.9024 12.1163C61.8303 11.0343 62.191 10.4932 62.9845 10.4932H64.218C64.8673 10.4932 65.2207 10.8323 65.2784 11.5104C65.7113 17.9883 65.6968 23.7592 65.2352 28.8233ZM82.3304 8.04779C81.811 8.04779 81.3566 7.83859 80.967 7.4202C80.5775 6.98738 80.3827 6.48242 80.3827 5.90532C80.3827 5.3138 80.5919 4.80884 81.0103 4.39044C81.4287 3.95762 81.9409 3.74121 82.5468 3.74121H82.958C83.4485 3.74121 83.903 3.96483 84.3214 4.41208C84.7398 4.85933 84.949 5.3715 84.949 5.9486C84.949 6.51127 84.7254 7.0018 84.2781 7.4202C83.8453 7.83859 83.3115 8.04779 82.6767 8.04779H82.3304ZM83.3475 11.4238L77.9805 32.0261C77.8074 32.6754 77.3674 33 76.6604 33H75.362C74.554 33 74.2294 32.661 74.3881 31.9829L79.7984 11.3805C79.9571 10.789 80.3755 10.4932 81.0536 10.4932H82.5035C82.8931 10.4932 83.1528 10.5654 83.2826 10.7096C83.4125 10.8395 83.4341 11.0775 83.3475 11.4238ZM87.4171 23.9973C90.418 22.6988 92.4595 20.9387 93.5416 18.7169C94.0898 17.5771 94.3639 16.459 94.3639 15.3625C94.3639 14.266 94.0465 13.7178 93.4117 13.7178C92.0267 13.7178 90.8292 14.7998 89.8193 16.9639C88.8238 19.128 88.0231 21.4725 87.4171 23.9973ZM86.8545 26.9188C86.638 28.1596 86.6525 29.0325 86.8977 29.5374C87.143 30.028 87.5325 30.3381 88.0664 30.468C89.1628 30.064 90.5046 28.9603 92.0916 27.1569C92.3657 26.8828 92.6615 26.8539 92.9789 27.0703L93.8229 27.5897C93.996 27.6907 94.1187 27.8494 94.1908 28.0658C94.2774 28.2678 94.2846 28.4337 94.2124 28.5636C93.6642 29.6312 92.6254 30.771 91.0961 31.9829C89.5812 33.1803 88.3621 33.6853 87.4388 33.4977C85.3468 32.9928 84.1205 31.8963 83.7598 30.2083C83.4857 28.8665 83.5362 27.0703 83.9113 24.8197C84.3008 22.569 85.015 20.2462 86.0537 17.8512C87.5686 14.3454 89.3215 12.1307 91.3125 11.2074C92.8851 10.4716 94.3206 10.3922 95.6191 10.9693C96.932 11.5464 97.5885 12.982 97.5885 15.2759C97.5885 16.6032 97.2638 17.9089 96.6146 19.193C95.446 21.4869 93.3829 23.4995 90.4252 25.2308C89.271 25.9089 88.0808 26.4716 86.8545 26.9188ZM106.288 10.2119C106.288 10.2119 106.511 10.2119 106.959 10.2119C107.954 10.2119 108.877 10.5942 109.729 11.3589C110.594 12.1235 111.294 13.0757 111.828 14.2155C111.929 14.4031 111.958 14.6483 111.914 14.9513C111.885 15.2543 111.756 15.4779 111.525 15.6222L110.205 16.3796C109.959 16.5672 109.707 16.6465 109.447 16.6177C109.188 16.5888 109.014 16.4878 108.928 16.3147C108.841 16.1416 108.697 15.817 108.495 15.3408C108.293 14.8647 108.12 14.5185 107.976 14.3021C107.846 14.0712 107.615 13.826 107.283 13.5663C106.966 13.2922 106.605 13.1335 106.201 13.0902C105.48 13.2344 104.787 13.725 104.124 14.5618C103.474 15.3986 103.15 16.5672 103.15 18.0676C103.15 18.7169 103.301 19.1713 103.604 19.431C103.907 19.6907 104.463 19.8999 105.27 20.0586L106.526 20.3183C108.329 20.7078 109.231 22.2011 109.231 24.798C109.231 26.3273 108.647 28.1019 107.478 30.1217C106.915 31.0739 106.158 31.8747 105.206 32.5239C104.268 33.1731 103.243 33.4977 102.133 33.4977H101.83C100.704 33.4977 99.6943 33.1082 98.7998 32.3291C97.9197 31.5356 97.3066 30.7349 96.9603 29.927C96.5996 29.1046 96.5924 28.4914 96.9387 28.0875L97.9125 27.2867C98.2299 26.9838 98.5618 26.8539 98.908 26.8972C99.2543 26.9261 99.4851 27.1858 99.6005 27.6763C99.7304 28.1668 100.091 28.7511 100.683 29.4292C101.289 30.1073 101.844 30.468 102.349 30.5113C103.243 30.367 104.015 29.8476 104.665 28.9531C105.314 28.0442 105.638 27.0126 105.638 25.8584C105.638 24.6898 105.523 23.9396 105.292 23.6078C105.061 23.2759 104.571 23.0234 103.821 22.8503L102.847 22.6339C101.678 22.3598 100.856 21.8837 100.38 21.2056C99.9179 20.5275 99.6871 19.5969 99.6871 18.4139C99.6871 17.2164 99.9973 15.9757 100.618 14.6916C101.238 13.4076 102.068 12.3399 103.106 11.4887C104.145 10.6375 105.206 10.2119 106.288 10.2119Z" fill="#A7ADC3"/>
</svg>
