<svg width="30" height="30" viewBox="0 0 30 30" fill="none" xmlns="http://www.w3.org/2000/svg">
<path d="M6.75 21.5H5.5C4.83696 21.5 4.20107 21.2366 3.73223 20.7678C3.26339 20.2989 3 19.663 3 19V6.5C3 5.83696 3.26339 5.20107 3.73223 4.73223C4.20107 4.26339 4.83696 4 5.5 4H25.5C26.163 4 26.7989 4.26339 27.2678 4.73223C27.7366 5.20107 28 5.83696 28 6.5V19C28 19.663 27.7366 20.2989 27.2678 20.7678C26.7989 21.2366 26.163 21.5 25.5 21.5H24.25" stroke="#E7E7E7" stroke-width="2" stroke-linecap="round" stroke-linejoin="round"/>
<path d="M15.5 19L21.75 26.5H9.25L15.5 19Z" stroke="#E7E7E7" stroke-width="2" stroke-linecap="round" stroke-linejoin="round"/>
</svg>
